<?xml version="1.0" encoding="UTF-8" standalone="no"?>
<!DOCTYPE svg PUBLIC "-//W3C//DTD SVG 1.1//EN" "http://www.w3.org/Graphics/SVG/1.1/DTD/svg11.dtd">
<svg width="100%" height="100%" viewBox="0 0 1000 1000" version="1.1" xmlns="http://www.w3.org/2000/svg" xmlns:xlink="http://www.w3.org/1999/xlink" xml:space="preserve" xmlns:serif="http://www.serif.com/" style="fill-rule:evenodd;clip-rule:evenodd;stroke-linejoin:round;stroke-miterlimit:1.5;">
    <rect x="0" y="0" width="1000" height="1000" style="fill:rgb(32,25,48);"/>
    <g>
        <g transform="matrix(-1,0,0,1,1000,0)">
            <path d="M168,274L138,267L91,449L116,632L244,806L246,842" style="fill:none;stroke:white;stroke-width:31.25px;"/>
            <path d="M182,318L154,456L185,554.5L265,633" style="fill:none;stroke:white;stroke-width:31.25px;"/>
            <path d="M222,465L246,460L374,656L401,842" style="fill:none;stroke:white;stroke-width:31.25px;"/>
        </g>
        <g>
            <path d="M168,274L138,267L91,449L116,632L244,806L246,842" style="fill:none;stroke:white;stroke-width:31.25px;"/>
            <path d="M182,318L154,456L185,554.5L265,633" style="fill:none;stroke:white;stroke-width:31.25px;"/>
            <path d="M222,465L246,460L374,656L401,842" style="fill:none;stroke:white;stroke-width:31.25px;"/>
        </g>
        <g transform="matrix(1,0,0,1,0,-1)">
            <path d="M262.959,339C304.635,249.837 395.153,187.998 500,187.998C604.847,187.998 695.365,249.837 737.041,339" style="fill:none;stroke:white;stroke-width:31.25px;"/>
        </g>
        <g transform="matrix(1,0,0,1,-14,-18)">
            <circle cx="514" cy="464" r="128" style="fill:none;stroke:white;stroke-width:31.25px;"/>
        </g>
    </g>
</svg>
